Coordinates
version=1
nRows=15
nColumns=42
inDegrees=yes

Units are S.I. units (second, meters, Newtons, ...)
If the header above contains a line with 'inDegrees', this indicates whether rotational values are in degrees (yes) or radians (no).

endheader
time	pelvis_tilt	pelvis_list	pelvis_rotation	pelvis_tx	pelvis_ty	pelvis_tz	hip_flexion_r	hip_adduction_r	hip_rotation_r	knee_angle_r	knee_adduction_r	knee_angle_r_beta	ankle_angle_r	subtalar_angle_r	mtp_angle_r	hip_flexion_l	hip_adduction_l	hip_rotation_l	knee_angle_l	knee_adduction_l	knee_angle_l_beta	ankle_angle_l	subtalar_angle_l	mtp_angle_l	lumbar_extension	lumbar_bending	lumbar_rotation	arm_flex_r	arm_add_r	arm_rot_r	elbow_flex_r	pro_sup_r	wrist_flex_r	wrist_dev_r	arm_flex_l	arm_add_l	arm_rot_l	elbow_flex_l	pro_sup_l	wrist_flex_l	wrist_dev_l
      3.05000000	      1.48738177	     -1.88285763	      3.17362584	      0.25533536	      0.85351483	      0.20652696	     31.21297857	      6.78085724	    -34.59315196	     35.49566833	    -22.05904660	      0.61951628	     12.52812763	     14.90523294	     -7.50000629	      9.29164844	     -1.67343403	     -9.10475380	     71.01116717	    -12.57183045	      1.23937867	      5.09096748	    -16.16293524	     -7.50000629	    -21.15473207	      2.59555822	     -0.18333583	      7.11572650	    -11.54422404	      9.76974810	     30.60592601	     90.00000001	      0.00000000	      0.00000000	     13.06157894	    -18.21557271	      7.96866178	     45.66797768	     90.00000001	      0.00000000	      0.00000000
      3.06000000	      1.38492573	     -1.86741199	      2.99737777	      0.26667071	      0.85545910	      0.20836782	     30.25717794	      7.01041891	    -34.89696885	     35.09271155	    -22.13933637	      0.61248336	     13.31592765	     15.14664314	     -7.50000617	     11.46893826	     -1.79175065	     -9.14690289	     73.36373665	    -12.45056421	      1.28043876	      5.43516459	    -16.90281404	     -7.50000617	    -21.13520099	      2.46669162	      0.03813719	      7.91111278	    -11.61080768	      9.82410913	     31.01461007	     90.00000001	      0.00000000	      0.00000000	     12.19378350	    -18.07590996	      8.14126996	     44.86296685	     90.00000001	      0.00000000	      0.00000000
      3.07000000	      1.26347936	     -1.75031113	      2.90560563	      0.27783285	      0.85738840	      0.20994199	     29.32057299	      7.07641566	    -35.08572397	     34.73669951	    -22.15054359	      0.60626978	     14.15174943	     15.65287497	     -7.50000606	     13.69624853	     -1.67373675	     -8.69298250	     75.40422651	    -11.93813342	      1.31605202	      5.63830772	    -17.67427373	     -7.50000606	    -21.10431024	      2.22682414	      0.19123203	      8.74032200	    -11.67418111	      9.91014990	     31.40434260	     90.00000001	      0.00000000	      0.00000000	     11.44818418	    -17.90417857	      8.36474209	     43.81137038	     90.00000001	      0.00000000	      0.00000000
      3.08000000	      1.10445926	     -1.51100605	      2.89133630	      0.28874313	      0.85926495	      0.21120718	     28.48596673	      6.81691281	    -35.77206205	     34.34858813	    -22.31954493	      0.59949596	     15.42107455	     18.22477258	     -7.50000574	     15.88271532	     -1.15526978	     -6.01624214	     77.19619660	     -9.47650075	      1.34732780	      5.83329938	    -18.35154122	     -7.50000574	    -21.03054063	      1.86880000	      0.40400027	      9.52285961	    -11.85693283	     10.40930684	     31.60747223	     90.00000001	      0.00000000	      0.00000000	     11.41079130	    -17.52469072	      9.07603384	     41.40060935	     90.00000001	      0.00000000	      0.00000000
      3.09000000	      1.06393770	     -1.34336256	      2.79904989	      0.29978671	      0.86125289	      0.21241781	     27.40397415	      6.83855550	    -35.62508640	     33.96364815	    -22.16656711	      0.59277749	     15.94790130	     18.24124766	     -7.50000564	     17.99517017	     -0.84194447	     -5.84580236	     78.36722292	     -9.20428543	      1.36776607	      6.19731588	    -18.39387316	     -7.50000564	    -21.09923992	      1.60967886	      0.53712565	     10.38876745	    -11.97680639	     10.44023058	     32.09428434	     90.00000001	      0.00000000	      0.00000000	     10.50800586	    -17.38655081	      9.24289678	     40.80076708	     90.00000001	      0.00000000	      0.00000000
      3.10000000	      0.87792028	     -1.13502057	      2.73785423	      0.31067018	      0.86284561	      0.21350220	     26.55578253	      6.69385016	    -35.90136931	     33.58935649	    -22.19580432	      0.58624486	     17.19388374	     19.92755906	     -7.50000538	     20.18010941	     -0.34089929	     -3.61751589	     79.33121408	     -6.97372885	      1.38459089	      6.56550617	    -18.55215221	     -7.50000538	    -20.94330881	      1.30606725	      0.75960195	     11.18370827	    -12.20916467	     10.94195299	     32.38972492	     90.00000001	      0.00000000	      0.00000000	     10.13281327	    -17.07407442	      9.83256800	     38.95029594	     90.00000001	      0.00000000	      0.00000000
      3.11000000	      0.84199987	     -0.95734741	      2.60312493	      0.32172352	      0.86453322	      0.21447679	     25.47727972	      6.62659146	    -36.14939611	     33.07966507	    -22.23428510	      0.57734907	     17.98460023	     21.34750478	     -7.50000510	     22.13143063	      0.11200388	     -2.46797679	     79.78081946	     -5.70535733	      1.39243798	      6.95420747	    -18.53923059	     -7.50000510	    -20.94274524	      1.05096620	      0.96239857	     12.01162323	    -12.50349627	     11.48907172	     32.91007874	     90.00000001	      0.00000000	      0.00000000	      9.43671592	    -16.84748457	     10.31409052	     37.74414813	     90.00000001	      0.00000000	      0.00000000
      3.12000000	      0.80361786	     -0.81682230	      2.38642819	      0.33285392	      0.86609526	      0.21547005	     24.34784226	      6.61048499	    -36.25202751	     32.52435879	    -22.13431343	      0.56765715	     18.87061516	     22.30148234	     -7.50000491	     24.01943996	      0.46100269	     -1.83943442	     79.78864509	     -4.80935146	      1.39257456	      7.14125780	    -18.49392924	     -7.50000491	    -20.92862280	      0.84380811	      1.23733483	     12.82923507	    -12.78146689	     11.83185942	     33.43665234	     90.00000001	      0.00000000	      0.00000000	      8.61754854	    -16.63110252	     10.56940218	     36.85608575	     90.00000001	      0.00000000	      0.00000000
      3.13000000	      0.82870253	     -0.63933497	      2.12099741	      0.34411507	      0.86751574	      0.21635768	     23.18473146	      6.41932344	    -36.89421468	     31.92505723	    -22.21196694	      0.55719736	     19.60604146	     24.57566225	     -7.50000459	     25.68818924	      0.88124952	     -1.13177810	     79.37187100	     -3.81411590	      1.38530048	      7.54904801	    -18.46317825	     -7.50000459	    -20.94722709	      0.59939364	      1.54267899	     13.56158215	    -13.21560764	     12.62019092	     34.14836532	     90.00000001	      0.00000000	      0.00000000	      7.84768945	    -16.34305468	     10.86985798	     35.79014571	     90.00000001	      0.00000000	      0.00000000
      3.14000000	      0.92925452	     -0.52828001	      1.76762367	      0.35547415	      0.86885752	      0.21733440	     21.84605156	      6.45310932	    -37.05116456	     31.24066777	    -22.15382138	      0.54525251	     20.49944487	     25.71828918	     -7.50000442	     27.17207677	      1.15945998	     -0.90848295	     78.56434792	     -3.24022635	      1.37120655	      7.74446777	    -18.38584353	     -7.50000442	    -21.03511108	      0.43187014	      1.92198993	     14.34268182	    -13.57355119	     12.91668092	     34.79278637	     90.00000001	      0.00000000	      0.00000000	      6.88414760	    -16.05806665	     10.98524378	     35.12899585	     90.00000001	      0.00000000	      0.00000000
      3.15000000	      0.99992938	     -0.40028713	      1.36102290	      0.36689991	      0.86990159	      0.21827384	     20.60512989	      6.31453662	    -37.72008773	     30.56442229	    -22.24314846	      0.53344980	     21.28516908	     28.33448983	     -7.50000417	     28.56518611	      1.41636099	     -0.74434458	     77.39333291	     -2.64409481	      1.35076848	      8.06775827	    -18.34623682	     -7.50000417	    -21.06840019	      0.22859534	      2.35355044	     15.00184175	    -14.08370497	     13.57152742	     35.71868852	     90.00000001	      0.00000000	      0.00000000	      5.99852935	    -15.72420432	     11.04187145	     34.30078174	     90.00000001	      0.00000000	      0.00000000
      3.16000000	      1.13568535	     -0.32530184	      0.90852377	      0.37841561	      0.87085111	      0.21930087	     19.23396214	      6.30464182	    -38.06880410	     29.86266760	    -22.20097337	      0.52120187	     22.05730476	     30.10295095	     -7.50000393	     29.76181812	      1.55412028	     -0.86462553	     75.86440369	     -2.31879222	      1.32408363	      8.28854077	    -18.30129033	     -7.50000393	    -21.16844378	      0.07246776	      2.82522842	     15.66465366	    -14.56977512	     14.10482563	     36.63669828	     90.00000001	      0.00000000	      0.00000000	      5.03090730	    -15.39577242	     11.01712389	     33.69216349	     90.00000001	      0.00000000	      0.00000000
      3.17000000	      1.28682485	     -0.29633096	      0.43545820	      0.38995161	      0.87160842	      0.22033907	     17.85359314	      6.35101007	    -38.32419050	     29.20728974	    -22.14479474	      0.50976337	     22.77626906	     31.64433319	     -7.50000372	     30.80573523	      1.61859797	     -1.10683806	     73.97529689	     -2.15200851	      1.29111250	      8.45889640	    -18.26417406	     -7.50000372	    -21.27424040	     -0.01260160	      3.33420484	     16.29226314	    -15.05702082	     14.52926986	     37.60524857	     90.00000001	      0.00000000	      0.00000000	      4.05500100	    -15.01761083	     10.94814866	     33.11814762	     90.00000001	      0.00000000	      0.00000000
      3.18000000	      1.49097296	     -0.27348376	     -0.05135372	      0.40155916	      0.87224935	      0.22142827	     16.37147845	      6.39463148	    -38.50055181	     28.50938387	    -22.02035977	      0.49758262	     23.52133133	     33.02236265	     -7.50000353	     31.66071858	      1.62224315	     -1.53310240	     71.77134410	     -2.14235586	      1.25264626	      8.56485005	    -18.22588644	     -7.50000353	    -21.44633188	     -0.13703845	      3.86747147	     16.89547676	    -15.57884856	     14.86552329	     38.60866988	     90.00000001	      0.00000000	      0.00000000	      3.09962260	    -14.67472589	     10.82523975	     32.58105613	     90.00000001	      0.00000000	      0.00000000
      3.19000000	      1.68995358	     -0.28582391	     -0.51858750	      0.41317906	      0.87268421	      0.22252143	     14.90152056	      6.48241126	    -38.58293095	     27.85893998	    -21.86292276	      0.48623023	     24.23311091	     33.93298961	     -7.50000340	     32.38007796	      1.59062375	     -2.02776996	     69.23144528	     -2.28425502	      1.20831667	      8.59038758	    -18.18326625	     -7.50000340	    -21.60987841	     -0.21897631	      4.39719022	     17.50313160	    -15.99983089	     15.00884048	     39.50855055	     90.00000001	      0.00000000	      0.00000000	      2.13655812	    -14.33192742	     10.74075439	     32.12881795	     90.00000001	      0.00000000	      0.00000000
